<svg width="256" height="256" viewBox="0 0 256 256" fill="none" xmlns="http://www.w3.org/2000/svg">
<path fill-rule="evenodd" clip-rule="evenodd" d="M128 256C198.692 256 256 198.692 256 128C256 57.3076 198.692 0 128 0C57.3076 0 0 57.3076 0 128C0 198.692 57.3076 256 128 256ZM128.272 226.142C182.322 226.142 226.138 182.326 226.138 128.276C226.138 74.2263 182.322 30.4102 128.272 30.4102C74.2224 30.4102 30.4062 74.2263 30.4062 128.276C30.4062 182.326 74.2224 226.142 128.272 226.142Z" fill="#F63652"/>
<path fill-rule="evenodd" clip-rule="evenodd" d="M196.552 172.387C204.775 159.683 209.549 144.538 209.549 128.279C209.549 83.3897 173.16 47 128.271 47C112.01 47 96.8648 51.775 84.1604 59.9993L108.063 83.9021C114.14 81.1521 120.886 79.6211 127.99 79.6211C154.709 79.6211 176.37 101.282 176.37 128.001C176.37 135.104 174.839 141.849 172.09 147.925L196.552 172.387ZM172.382 196.558C159.677 204.782 144.532 209.557 128.271 209.557C83.3819 209.557 46.9922 173.168 46.9922 128.279C46.9922 112.019 51.7667 96.874 59.9903 84.17L83.8919 108.072C81.1409 114.149 79.6094 120.896 79.6094 128.001C79.6094 154.721 101.27 176.381 127.99 176.381C135.096 176.381 141.844 174.849 147.922 172.098L172.382 196.558Z" fill="#F63652"/>
</svg>
